<svg id="Calque_1" data-name="Calque 1" xmlns="http://www.w3.org/2000/svg" xmlns:xlink="http://www.w3.org/1999/xlink" viewBox="0 0 4856.98 2036.26"><defs><style>.cls-1,.cls-36,.cls-41{font-size:108px;}.cls-1,.cls-112,.cls-115,.cls-118,.cls-121,.cls-122,.cls-19,.cls-36,.cls-4,.cls-41,.cls-43,.cls-50,.cls-55,.cls-59,.cls-60,.cls-69,.cls-78{fill:#636363;}.cls-1,.cls-105,.cls-112,.cls-115,.cls-119,.cls-122,.cls-124,.cls-127,.cls-130,.cls-19,.cls-4,.cls-50,.cls-59,.cls-60,.cls-69,.cls-78,.cls-80,.cls-91{font-family:MyriadPro-Regular, Myriad Pro;}.cls-2{letter-spacing:0em;}.cls-3{letter-spacing:-0.01em;}.cls-4{font-size:40px;}.cls-5{letter-spacing:0em;}.cls-6{letter-spacing:-0.01em;}.cls-7{letter-spacing:-0.01em;}.cls-8{letter-spacing:0em;}.cls-9{letter-spacing:-0.01em;}.cls-10{letter-spacing:0em;}.cls-11{letter-spacing:-0.01em;}.cls-12{letter-spacing:-0.02em;}.cls-13{letter-spacing:0.02em;}.cls-14{letter-spacing:0em;}.cls-15{letter-spacing:0em;}.cls-16{letter-spacing:0em;}.cls-17{letter-spacing:-0.01em;}.cls-18{letter-spacing:-0.01em;}.cls-19{font-size:40.53px;}.cls-20{letter-spacing:-0.03em;}.cls-21{letter-spacing:-0.01em;}.cls-22{letter-spacing:0.02em;}.cls-23{letter-spacing:-0.01em;}.cls-24{letter-spacing:-0.02em;}.cls-25{letter-spacing:0em;}.cls-26{letter-spacing:0.01em;}.cls-27{letter-spacing:-0.03em;}.cls-28{letter-spacing:0.01em;}.cls-29{letter-spacing:-0.01em;}.cls-30{letter-spacing:0em;}.cls-31{letter-spacing:-0.04em;}.cls-32{letter-spacing:0em;}.cls-33{letter-spacing:0.01em;}.cls-34{letter-spacing:-0.02em;}.cls-35{letter-spacing:-0.01em;}.cls-118,.cls-120,.cls-36{font-family:MyriadPro-BoldCond, Myriad Pro;font-weight:700;}.cls-37{letter-spacing:-0.01em;}.cls-38{letter-spacing:-0.01em;}.cls-39{letter-spacing:-0.05em;}.cls-40{letter-spacing:-0.01em;}.cls-41,.cls-43,.cls-55{font-family:MyriadPro-SemiboldCond, Myriad Pro;font-weight:600;}.cls-42{letter-spacing:0em;}.cls-43,.cls-50{font-size:70px;}.cls-44{letter-spacing:0em;}.cls-45{letter-spacing:-0.02em;}.cls-46{letter-spacing:-0.05em;}.cls-47{letter-spacing:-0.01em;}.cls-48{letter-spacing:0.01em;}.cls-49{letter-spacing:0em;}.cls-51{letter-spacing:-0.01em;}.cls-52{letter-spacing:-0.04em;}.cls-53{letter-spacing:-0.07em;}.cls-54{letter-spacing:0.01em;}.cls-130,.cls-55,.cls-69{font-size:35px;}.cls-56{letter-spacing:0em;}.cls-57{letter-spacing:-0.05em;}.cls-58{letter-spacing:-0.01em;}.cls-59{font-size:47.74px;}.cls-60{font-size:30.97px;}.cls-61{letter-spacing:0em;}.cls-62{letter-spacing:0em;}.cls-63{letter-spacing:-0.01em;}.cls-64{letter-spacing:-0.01em;}.cls-65{letter-spacing:0em;}.cls-66{letter-spacing:-0.01em;}.cls-67{letter-spacing:-0.01em;}.cls-68{letter-spacing:-0.01em;}.cls-70{letter-spacing:0em;}.cls-71{letter-spacing:-0.01em;}.cls-72{letter-spacing:0em;}.cls-73{letter-spacing:-0.01em;}.cls-74{letter-spacing:-0.04em;}.cls-75{letter-spacing:-0.07em;}.cls-76{letter-spacing:0em;}.cls-77{letter-spacing:0.01em;}.cls-78{font-size:335.72px;}.cls-79{letter-spacing:0em;}.cls-80,.cls-91{font-size:32.01px;}.cls-80{fill:#8f8f8f;}.cls-81{letter-spacing:0em;}.cls-82{letter-spacing:-0.01em;}.cls-83{letter-spacing:0em;}.cls-84{letter-spacing:-0.05em;}.cls-113,.cls-114,.cls-123,.cls-126,.cls-128,.cls-129,.cls-146,.cls-85,.cls-99{fill:none;}.cls-85{stroke:#9e9e9e;}.cls-114,.cls-123,.cls-126,.cls-128,.cls-129,.cls-146,.cls-85,.cls-99{stroke-miterlimit:10;}.cls-126,.cls-129,.cls-85,.cls-99{stroke-width:2px;}.cls-86{letter-spacing:-0.01em;}.cls-87{letter-spacing:0em;}.cls-88{letter-spacing:-0.01em;}.cls-89{letter-spacing:0em;}.cls-90{letter-spacing:0.01em;}.cls-91{fill:#989898;}.cls-92{letter-spacing:-0.07em;}.cls-93{letter-spacing:0em;}.cls-94{letter-spacing:0.01em;}.cls-95{letter-spacing:-0.01em;}.cls-96{letter-spacing:-0.01em;}.cls-97{fill:#69cf6a;}.cls-105,.cls-98{fill:#fff;}.cls-99{stroke:#e82828;}.cls-100{fill:#e82828;}.cls-101{fill:#e5d329;}.cls-102,.cls-124{fill:#3979b7;}.cls-103{fill:#3ab548;}.cls-104{letter-spacing:0.01em;}.cls-105,.cls-112{font-size:36.79px;}.cls-106{letter-spacing:0em;}.cls-107{letter-spacing:0em;}.cls-108{letter-spacing:-0.01em;}.cls-109{fill:url(#Dégradé_sans_nom_6);}.cls-110{fill:#86b8e2;}.cls-111{fill:#c6c6c6;}.cls-114,.cls-126,.cls-146{stroke:#3979b7;}.cls-114,.cls-123,.cls-128{stroke-width:3px;}.cls-115,.cls-118,.cls-119,.cls-120{font-size:26.54px;}.cls-116{letter-spacing:0em;}.cls-117{letter-spacing:-0.01em;}.cls-119,.cls-120,.cls-127,.cls-145{fill:#fefeff;}.cls-122{font-size:31.01px;}.cls-123{stroke:#636363;}.cls-124,.cls-127{font-size:24.68px;}.cls-125{letter-spacing:0.01em;}.cls-128,.cls-129{stroke:#fefeff;}.cls-131{letter-spacing:-0.01em;}.cls-132{letter-spacing:-0.01em;}.cls-133{letter-spacing:0.01em;}.cls-134{letter-spacing:-0.01em;}.cls-135{letter-spacing:0em;}.cls-136{letter-spacing:-0.01em;}.cls-137{letter-spacing:0em;}.cls-138{letter-spacing:0em;}.cls-139{letter-spacing:-0.02em;}.cls-140{letter-spacing:0.02em;}.cls-141{letter-spacing:-0.01em;}.cls-142{letter-spacing:-0.02em;}.cls-143{letter-spacing:-0.01em;}.cls-144{fill:url(#Dégradé_sans_nom_7);}.cls-146{stroke-width:4px;}</style><linearGradient id="Dégradé_sans_nom_6" x1="1588.36" y1="487.91" x2="1588.36" y2="420.95" gradientUnits="userSpaceOnUse"><stop offset="0" stop-color="#86b8e2"/><stop offset="1" stop-color="#3979b7"/></linearGradient><linearGradient id="Dégradé_sans_nom_7" x1="3744.46" y1="1510.49" x2="4160.42" y2="1510.49" gradientUnits="userSpaceOnUse"><stop offset="0" stop-color="#3979b7"/><stop offset="1" stop-color="#86b8e2"/></linearGradient></defs><title>UI</title><text class="cls-1" transform="translate(75.67 97.73)"><tspan class="cls-2">D</tspan><tspan x="72.36" y="0">esi</tspan><tspan class="cls-3" x="194.5" y="0">g</tspan><tspan x="254.23" y="0">n visuel</tspan></text><text class="cls-4" transform="translate(83.92 269.45)">E<tspan class="cls-5" x="19.68" y="0">n</tspan><tspan x="41.72" y="0">t</tspan><tspan class="cls-6" x="54.96" y="0">r</tspan><tspan x="67.64" y="0">ées de </tspan><tspan class="cls-7" x="183.12" y="0">f</tspan><tspan x="194.28" y="0">o</tspan><tspan class="cls-8" x="216.24" y="0">r</tspan><tspan x="229.48" y="0">mulai</tspan><tspan class="cls-9" x="322.96" y="0">r</tspan><tspan class="cls-10" x="335.64" y="0">es</tspan></text><text class="cls-4" transform="translate(83.92 1603.97)">Notific<tspan class="cls-5" x="109.72" y="0">a</tspan><tspan x="128.84" y="0">tions</tspan></text><text class="cls-4" transform="translate(177.48 1739.68)">Su<tspan class="cls-11" x="41.76" y="0">cc</tspan><tspan x="77.12" y="0">ess</tspan></text><text class="cls-4" transform="translate(177.48 1885.38)"><tspan class="cls-12">A</tspan><tspan class="cls-6" x="23.64" y="0">v</tspan><tspan x="42.48" y="0">e</tspan><tspan class="cls-13" x="62.52" y="0">r</tspan><tspan class="cls-10" x="76.56" y="0">tisseme</tspan><tspan class="cls-14" x="204.28" y="0">n</tspan><tspan class="cls-15" x="226.32" y="0">t</tspan></text><text class="cls-4" transform="translate(177.48 2026.26)">E<tspan class="cls-16" x="19.68" y="0">r</tspan><tspan class="cls-6" x="32.92" y="0">r</tspan><tspan x="45.6" y="0">eur</tspan></text><text class="cls-4" transform="translate(1248.76 269.45)"><tspan class="cls-8">B</tspan><tspan class="cls-15" x="21.84" y="0">out</tspan><tspan class="cls-17" x="79.08" y="0">t</tspan><tspan class="cls-15" x="92.08" y="0">ons et lis</tspan><tspan class="cls-17" x="236.96" y="0">t</tspan><tspan x="249.96" y="0">es dé</tspan><tspan class="cls-18" x="336.91" y="0">r</tspan><tspan x="349.59" y="0">oula</tspan><tspan class="cls-5" x="422.31" y="0">n</tspan><tspan class="cls-17" x="444.35" y="0">t</tspan><tspan x="457.35" y="0">es</tspan></text><text class="cls-4" transform="translate(1256.41 1316.89)">I<tspan class="cls-17" x="9.56" y="0">c</tspan><tspan class="cls-15" x="27.24" y="0">ones</tspan></text><text class="cls-19" transform="translate(83.92 373.25)"><tspan class="cls-20">P</tspan><tspan x="20.51" y="0">ar défaut</tspan></text><text class="cls-19" transform="translate(1234.43 373.25)"><tspan class="cls-20">P</tspan><tspan x="20.51" y="0">ar défaut</tspan></text><text class="cls-19" transform="translate(83.92 484.23)"><tspan class="cls-21">A</tspan><tspan x="24.32" y="0">u su</tspan><tspan class="cls-22" x="93.63" y="0">r</tspan><tspan class="cls-23" x="107.9" y="0">v</tspan><tspan x="126.99" y="0">ol</tspan></text><text class="cls-19" transform="translate(1506.5 373.25)"><tspan class="cls-21">A</tspan><tspan x="24.32" y="0">u su</tspan><tspan class="cls-22" x="93.63" y="0">r</tspan><tspan class="cls-23" x="107.9" y="0">v</tspan><tspan x="126.99" y="0">ol</tspan></text><text class="cls-19" transform="translate(1773.4 373.25)"><tspan class="cls-24">P</tspan><tspan class="cls-23" x="20.92" y="0">r</tspan><tspan x="33.77" y="0">éssé</tspan></text><text class="cls-19" transform="translate(2033.43 373.25)"><tspan class="cls-25">D</tspan><tspan x="27.16" y="0">ésa</tspan><tspan class="cls-26" x="83.05" y="0">c</tspan><tspan x="101.74" y="0">ti</tspan><tspan class="cls-23" x="124.64" y="0">v</tspan><tspan x="143.73" y="0">é</tspan></text><text class="cls-19" transform="translate(137.58 577.78)"><tspan class="cls-27">V</tspan><tspan x="21.28" y="0">alide</tspan></text><text class="cls-19" transform="translate(99.06 683.26)"><tspan class="cls-28">I</tspan><tspan class="cls-29" x="10.09" y="0">n</tspan><tspan class="cls-30" x="32.06" y="0">v</tspan><tspan x="51.4" y="0">alide</tspan></text><text class="cls-1" transform="translate(3055.64 90.4)"><tspan class="cls-31">T</tspan><tspan x="49.36" y="0">ypo</tspan><tspan class="cls-3" x="220.96" y="0">g</tspan><tspan class="cls-32" x="280.69" y="0">r</tspan><tspan x="315.46" y="0">aphie et </tspan><tspan class="cls-3" x="703.93" y="0">c</tspan><tspan x="751.67" y="0">ouleurs</tspan></text><text class="cls-1" transform="translate(3728.41 346.13)"><tspan class="cls-33">M</tspan><tspan x="87.59" y="0">y</tspan><tspan class="cls-2" x="138.45" y="0">r</tspan><tspan x="174.2" y="0">iad </tspan><tspan class="cls-34" x="335.33" y="0">P</tspan><tspan class="cls-35" x="391.06" y="0">r</tspan><tspan x="425.3" y="0">o</tspan></text><text class="cls-36" transform="translate(3040.51 778.94)"><tspan class="cls-33">D</tspan><tspan x="53.78" y="0">ispl</tspan><tspan class="cls-37" x="185.43" y="0">a</tspan><tspan x="229.49" y="0">y</tspan><tspan class="cls-38" x="271.72" y="0"> </tspan><tspan class="cls-39" x="287.71" y="0">T</tspan><tspan class="cls-40" x="325.18" y="0">e</tspan><tspan class="cls-2" x="369.46" y="0">x</tspan><tspan x="412.66" y="0">t</tspan></text><text class="cls-41" transform="translate(3040.51 1083.44)"><tspan class="cls-42">H</tspan><tspan x="52.7" y="0">eadline</tspan></text><text class="cls-1" transform="translate(3040.51 1202.79)">Headline</text><text class="cls-43" transform="translate(3040.51 1313.03)"><tspan class="cls-44">T</tspan><tspan x="26.11" y="0">itle</tspan><tspan class="cls-45" x="102.76" y="0"> </tspan><tspan class="cls-46" x="112.28" y="0">T</tspan><tspan class="cls-47" x="134.89" y="0">e</tspan><tspan class="cls-48" x="161.91" y="0">x</tspan><tspan class="cls-49" x="188.44" y="0">t</tspan></text><text class="cls-50" transform="translate(3040.51 1415.79)"><tspan class="cls-51">T</tspan><tspan x="33.95" y="0">itle</tspan><tspan class="cls-52" x="125.09" y="0"> </tspan><tspan class="cls-53" x="137.06" y="0">T</tspan><tspan class="cls-44" x="166.88" y="0">e</tspan><tspan class="cls-54" x="201.74" y="0">x</tspan><tspan x="235.06" y="0">t</tspan></text><text class="cls-55" transform="translate(3040.51 1508.39)"><tspan class="cls-56">B</tspan><tspan x="16.03" y="0">ody</tspan><tspan class="cls-45" x="58.2" y="0"> </tspan><tspan class="cls-57" x="62.96" y="0">T</tspan><tspan class="cls-58" x="74.27" y="0">e</tspan><tspan class="cls-48" x="87.78" y="0">x</tspan><tspan x="101.04" y="0">t</tspan></text><text class="cls-59" transform="translate(3992.9 896.85)">#3979b7</text><text class="cls-60" transform="translate(3760.28 1323.07)">#69<tspan class="cls-61" x="47.17" y="0">c</tspan><tspan x="61.14" y="0">f6a</tspan></text><text class="cls-60" transform="translate(3744.46 1451.94)"><tspan class="cls-62">D</tspan><tspan x="20.75" y="0">é</tspan><tspan class="cls-63" x="36.27" y="0">g</tspan><tspan class="cls-64" x="53.4" y="0">r</tspan><tspan class="cls-65" x="63.37" y="0">adés</tspan></text><text class="cls-60" transform="translate(3745.46 1590.2)">#3979b7</text><text class="cls-60" transform="translate(4046.3 1590.2)">#86b8e2</text><text class="cls-60" transform="translate(3748.59 1076.8)"><tspan class="cls-66">A</tspan><tspan x="18.58" y="0">ut</tspan><tspan class="cls-67" x="45.9" y="0">r</tspan><tspan x="55.72" y="0">es </tspan><tspan class="cls-68" x="90.07" y="0">c</tspan><tspan x="103.76" y="0">ouleurs</tspan></text><text class="cls-69" transform="translate(3040.51 1596.02)"><tspan class="cls-70">B</tspan><tspan x="19.11" y="0">ody </tspan><tspan class="cls-71" x="81.97" y="0">t</tspan><tspan class="cls-72" x="93.34" y="0">e</tspan><tspan class="cls-54" x="110.77" y="0">x</tspan><tspan x="127.43" y="0">t</tspan></text><text class="cls-1" transform="translate(3040.51 923.97)">Displ<tspan class="cls-73" x="226.9" y="0">a</tspan><tspan x="278.09" y="0">y</tspan><tspan class="cls-74" x="328.96" y="0"> </tspan><tspan class="cls-75" x="347.43" y="0">T</tspan><tspan class="cls-76" x="393.44" y="0">e</tspan><tspan class="cls-77" x="447.22" y="0">x</tspan><tspan x="498.63" y="0">t</tspan></text><text class="cls-78" transform="translate(3040.51 522.18)"><tspan class="cls-79">A</tspan><tspan x="206.8" y="0">a</tspan></text><text class="cls-80" transform="translate(358.74 378.6)"><tspan class="cls-81">P</tspan><tspan x="16.87" y="0">la</tspan><tspan class="cls-82" x="39.85" y="0">c</tspan><tspan class="cls-83" x="53.99" y="0">eholde</tspan><tspan class="cls-84" x="147" y="0">r</tspan><tspan x="155.77" y="0">...</tspan></text><rect class="cls-85" x="340.74" y="340.93" width="681.02" height="52.97" rx="11.69"/><text class="cls-80" transform="translate(358.74 479.03)">|</text><rect class="cls-85" x="340.74" y="442.05" width="681.02" height="52.97" rx="11.69"/><text class="cls-19" transform="translate(0 773.97)"><tspan class="cls-86">Z</tspan><tspan class="cls-87" x="21.93" y="0">one de </tspan><tspan class="cls-88" x="147.34" y="0">t</tspan><tspan class="cls-89" x="160.51" y="0">e</tspan><tspan class="cls-26" x="180.7" y="0">x</tspan><tspan class="cls-88" x="199.99" y="0">t</tspan><tspan x="213.17" y="0">e</tspan></text><text class="cls-19" transform="translate(127.49 1216.98)">a<tspan class="cls-26" x="19.54" y="0">c</tspan><tspan x="38.22" y="0">tif</tspan></text><text class="cls-19" transform="translate(535.95 1216.98)">a<tspan class="cls-26" x="19.54" y="0">c</tspan><tspan x="38.22" y="0">tif</tspan></text><text class="cls-19" transform="translate(731.01 1216.98)"><tspan class="cls-90">S</tspan><tspan x="20.23" y="0">ele</tspan><tspan class="cls-26" x="70.41" y="0">c</tspan><tspan x="89.09" y="0">tionnné</tspan></text><text class="cls-91" transform="translate(358.74 773.13)"><tspan class="cls-92">T</tspan><tspan class="cls-93" x="13.63" y="0">e</tspan><tspan class="cls-94" x="29.57" y="0">x</tspan><tspan class="cls-95" x="44.81" y="0">t</tspan><tspan class="cls-96" x="55.21" y="0">e</tspan><tspan x="70.86" y="0">...</tspan></text><rect class="cls-85" x="340.74" y="736.37" width="681.02" height="152.35" rx="19.83"/><text class="cls-91" transform="translate(358.74 575.79)">Name</text><rect class="cls-85" x="340.74" y="543.17" width="681.02" height="52.97" rx="11.69"/><circle class="cls-97" cx="996.19" cy="566.67" r="14.1"/><path class="cls-98" d="M1136.06,974.94l6,7.8,10.39-12.69-10.63,8.54Z" transform="translate(-146.71 -408.61)"/><text class="cls-91" transform="translate(358.74 681.04)">Name</text><rect class="cls-99" x="340.74" y="644.29" width="681.02" height="52.97" rx="11.69"/><circle class="cls-100" cx="996.19" cy="669.16" r="14.1"/><rect class="cls-98" x="993.78" y="659.22" width="4.43" height="14.06"/><rect class="cls-98" x="993.78" y="675.28" width="4.43" height="3.82"/><circle class="cls-101" cx="131.1" cy="1869.8" r="22.11"/><rect class="cls-98" x="127.33" y="1854.22" width="6.95" height="22.05"/><rect class="cls-98" x="127.33" y="1879.39" width="6.95" height="5.99"/><circle class="cls-100" cx="131.1" cy="2010.68" r="22.11"/><rect class="cls-98" x="127.33" y="1995.1" width="6.95" height="22.05"/><rect class="cls-98" x="127.33" y="2020.27" width="6.95" height="5.99"/><circle class="cls-101" cx="1711.26" cy="1571.94" r="22.11"/><rect class="cls-98" x="1707.49" y="1556.37" width="6.95" height="22.05"/><rect class="cls-98" x="1707.49" y="1581.53" width="6.95" height="5.99"/><circle class="cls-100" cx="1857.1" cy="1570" r="22.11"/><rect class="cls-98" x="1853.32" y="1554.42" width="6.95" height="22.05"/><rect class="cls-98" x="1853.32" y="1579.58" width="6.95" height="5.99"/><rect class="cls-85" x="982.25" y="1185.86" width="36.92" height="36.92" rx="18.46"/><rect class="cls-102" x="986.38" y="1189.99" width="28.65" height="28.65" rx="14.33"/><rect class="cls-102" x="620.57" y="1185.86" width="36.92" height="36.92" rx="8.75"/><path class="cls-98" d="M772.72,1610.46q5.07,6.63,10.13,13.25l17.66-21.56-18.06,14.5Z" transform="translate(-146.71 -408.61)"/><rect class="cls-103" x="108.11" y="1705.05" width="45.98" height="45.98" rx="22.99"/><path class="cls-98" d="M262.8,2134l10.94,14.32,19.09-23.3-19.52,15.67Z" transform="translate(-146.71 -408.61)"/><rect class="cls-102" x="1856.62" y="1406.89" width="8.45" height="8.45" rx="4.23"/><rect class="cls-102" x="1856.62" y="1423.86" width="8.45" height="8.45" rx="4.23"/><rect class="cls-102" x="1856.62" y="1439.68" width="8.45" height="8.45" rx="4.23"/><rect class="cls-103" x="1543.13" y="1547.01" width="45.98" height="45.98" rx="22.99"/><path class="cls-98" d="M1697.81,1975.94l11,14.32,19.08-23.3-19.51,15.68Z" transform="translate(-146.71 -408.61)"/><rect class="cls-102" x="243.97" y="1187.27" width="73.83" height="36.92" rx="18.46"/><circle class="cls-98" cx="298.89" cy="1205.73" r="14.1"/><text class="cls-19" transform="translate(127.49 1300.08)">é<tspan class="cls-88" x="20.31" y="0">t</tspan><tspan class="cls-87" x="33.48" y="0">ei</tspan><tspan class="cls-30" x="63.27" y="0">n</tspan><tspan x="85.61" y="0">t</tspan></text><text class="cls-19" transform="translate(458.9 1300.08)"><tspan class="cls-28">I</tspan><tspan x="10.09" y="0">nna</tspan><tspan class="cls-26" x="74.62" y="0">c</tspan><tspan x="93.31" y="0">tif</tspan></text><text class="cls-19" transform="translate(677.81 1300.08)">non <tspan class="cls-104" x="75.84" y="0">S</tspan><tspan x="96.06" y="0">ele</tspan><tspan class="cls-26" x="146.24" y="0">c</tspan><tspan x="164.93" y="0">tionnné</tspan></text><rect class="cls-102" x="1251.06" y="420.95" width="151.8" height="66.96" rx="6.21"/><text class="cls-105" transform="translate(1265.45 468.53)"><tspan class="cls-106">B</tspan><tspan class="cls-107" x="20.09" y="0">out</tspan><tspan class="cls-108" x="72.73" y="0">t</tspan><tspan x="84.68" y="0">on</tspan></text><rect class="cls-109" x="1512.46" y="420.95" width="151.8" height="66.96" rx="6.21"/><text class="cls-105" transform="translate(1526.85 468.53)"><tspan class="cls-106">B</tspan><tspan class="cls-107" x="20.09" y="0">out</tspan><tspan class="cls-108" x="72.73" y="0">t</tspan><tspan x="84.68" y="0">on</tspan></text><rect class="cls-110" x="1773.4" y="420.95" width="151.8" height="66.96" rx="6.21"/><text class="cls-105" transform="translate(1787.79 468.53)"><tspan class="cls-106">B</tspan><tspan class="cls-107" x="20.09" y="0">out</tspan><tspan class="cls-108" x="72.73" y="0">t</tspan><tspan x="84.68" y="0">on</tspan></text><rect class="cls-111" x="1251.29" y="558.53" width="151.8" height="66.96" rx="6.21"/><rect class="cls-111" x="1251.06" y="558.53" width="151.8" height="66.96" rx="6.21"/><text class="cls-112" transform="translate(1265.45 606.11)"><tspan class="cls-106">B</tspan><tspan class="cls-107" x="20.09" y="0">out</tspan><tspan class="cls-108" x="72.73" y="0">t</tspan><tspan x="84.68" y="0">on</tspan></text><rect class="cls-113" x="1251.29" y="683.26" width="151.8" height="66.96" rx="6.21"/><rect class="cls-114" x="1251.06" y="683.26" width="151.8" height="66.96" rx="6.21"/><text class="cls-115" transform="translate(1300.36 729.6)"><tspan class="cls-116">B</tspan><tspan x="14.49" y="0">out</tspan><tspan class="cls-117" x="52.47" y="0">t</tspan><tspan x="61.09" y="0">on</tspan></text><text class="cls-118" transform="translate(1265.45 727.88)">+</text><rect class="cls-113" x="1512.57" y="683.26" width="151.8" height="66.96" rx="6.21"/><rect class="cls-114" x="1512.34" y="683.26" width="151.8" height="66.96" rx="6.21"/><text class="cls-115" transform="translate(1561.64 729.6)"><tspan class="cls-116">B</tspan><tspan x="14.49" y="0">out</tspan><tspan class="cls-117" x="52.47" y="0">t</tspan><tspan x="61.09" y="0">on</tspan></text><text class="cls-118" transform="translate(1526.74 727.88)">+</text><rect class="cls-113" x="1773.52" y="683.26" width="151.8" height="66.96" rx="6.21"/><rect class="cls-102" x="1773.29" y="683.26" width="151.8" height="66.96" rx="6.21"/><text class="cls-119" transform="translate(1822.59 729.6)"><tspan class="cls-116">B</tspan><tspan x="14.49" y="0">out</tspan><tspan class="cls-117" x="52.47" y="0">t</tspan><tspan x="61.09" y="0">on</tspan></text><text class="cls-120" transform="translate(1789.06 727.88)">+</text><rect class="cls-111" x="1512.69" y="558.53" width="151.8" height="66.96" rx="6.21"/><rect class="cls-111" x="1512.46" y="558.53" width="151.8" height="66.96" rx="6.21"/><text class="cls-112" transform="translate(1526.85 606.11)"><tspan class="cls-106">B</tspan><tspan class="cls-107" x="20.09" y="0">out</tspan><tspan class="cls-108" x="72.73" y="0">t</tspan><tspan x="84.68" y="0">on</tspan></text><rect class="cls-111" x="1773.63" y="558.53" width="151.8" height="66.96" rx="6.21"/><rect class="cls-111" x="1773.4" y="558.53" width="151.8" height="66.96" rx="6.21"/><text class="cls-112" transform="translate(1787.79 606.11)"><tspan class="cls-106">B</tspan><tspan class="cls-107" x="20.09" y="0">out</tspan><tspan class="cls-108" x="72.73" y="0">t</tspan><tspan x="84.68" y="0">on</tspan></text><rect class="cls-85" x="622.09" y="1268.96" width="36.92" height="36.92" rx="8.75"/><rect class="cls-85" x="982.25" y="1268.96" width="36.92" height="36.92" rx="18.46"/><rect class="cls-121" x="243.97" y="1270.38" width="73.83" height="36.92" rx="18.46"/><circle class="cls-98" cx="262.2" cy="1288.83" r="14.1"/><text class="cls-122" transform="translate(1259.95 859.18)">Options</text><rect class="cls-113" x="1251.29" y="827.25" width="151.8" height="46.79" rx="5.19"/><rect class="cls-114" x="1251.06" y="827.25" width="151.8" height="46.79" rx="5.19"/><path class="cls-123" d="M1522.36,1254l9.63,10.47,10.39-10.25" transform="translate(-146.71 -408.61)"/><text class="cls-122" transform="translate(1521.35 859.18)">Options</text><rect class="cls-113" x="1512.69" y="827.25" width="151.8" height="46.79" rx="5.19"/><rect class="cls-114" x="1512.46" y="827.25" width="151.8" height="46.79" rx="5.19"/><path class="cls-123" d="M1783.76,1254l9.63,10.47,10.39-10.25" transform="translate(-146.71 -408.61)"/><text class="cls-122" transform="translate(1782.41 859.18)">Options</text><rect class="cls-113" x="1773.74" y="827.25" width="151.8" height="46.79" rx="5.19"/><rect class="cls-114" x="1773.52" y="827.25" width="151.8" height="46.79" rx="5.19"/><path class="cls-123" d="M2044.82,1254l9.63,10.47,10.39-10.25" transform="translate(-146.71 -408.61)"/><text class="cls-124" transform="translate(1285.33 984.36)"><tspan class="cls-125">M</tspan><tspan x="19.99" y="0">odifier</tspan></text><path class="cls-126" d="M1396.77,1384l.18,10.77h21.23" transform="translate(-146.71 -408.61)"/><path class="cls-126" d="M1405.86,1384.36l-.61,3.78,5-.13,9-9.37-4.86-4.38Z" transform="translate(-146.71 -408.61)"/><rect class="cls-114" x="1512.46" y="951.08" width="151.8" height="46.79" rx="5.19"/><text class="cls-124" transform="translate(1562.01 984.36)"><tspan class="cls-125">M</tspan><tspan x="19.99" y="0">odifier</tspan></text><path class="cls-126" d="M1673.45,1384l.18,10.77h21.24" transform="translate(-146.71 -408.61)"/><path class="cls-126" d="M1682.55,1384.36l-.61,3.78,5-.13,9-9.37-4.87-4.38Z" transform="translate(-146.71 -408.61)"/><rect class="cls-102" x="1769.73" y="951.08" width="151.8" height="46.79" rx="5.19"/><text class="cls-127" transform="translate(1819.28 984.36)"><tspan class="cls-125">M</tspan><tspan x="19.99" y="0">odifier</tspan></text><path class="cls-128" d="M1930.72,1384c.06,3.59.13,7.18.19,10.77h21.23" transform="translate(-146.71 -408.61)"/><path class="cls-128" d="M1939.82,1384.36l-.61,3.78,5-.13,9-9.37-4.86-4.38Z" transform="translate(-146.71 -408.61)"/><text class="cls-124" transform="translate(1285.33 1090.3)"><tspan class="cls-125">M</tspan><tspan x="19.99" y="0">odifier</tspan></text><path class="cls-126" d="M1422.74,1479.94v19.27h-20.88q-.06-9.63-.11-19.27" transform="translate(-146.71 -408.61)"/><line class="cls-126" x1="1254.1" y1="1069.49" x2="1276.8" y2="1069.49"/><line class="cls-126" x1="1261.91" y1="1067.62" x2="1268.99" y2="1067.62"/><path class="cls-126" d="M1408.09,1496.77v-14.91" transform="translate(-146.71 -408.61)"/><path class="cls-126" d="M1416.19,1496.77v-14.91" transform="translate(-146.71 -408.61)"/><rect class="cls-114" x="1512.46" y="1057.02" width="151.8" height="46.79" rx="5.19"/><text class="cls-124" transform="translate(1562.01 1090.3)"><tspan class="cls-125">M</tspan><tspan x="19.99" y="0">odifier</tspan></text><path class="cls-126" d="M1701.8,1479.94v19.27h-20.88q-.06-9.63-.11-19.27" transform="translate(-146.71 -408.61)"/><line class="cls-126" x1="1533.16" y1="1069.49" x2="1555.86" y2="1069.49"/><line class="cls-126" x1="1540.97" y1="1067.62" x2="1548.05" y2="1067.62"/><path class="cls-126" d="M1687.15,1496.77v-14.91" transform="translate(-146.71 -408.61)"/><path class="cls-126" d="M1695.25,1496.77v-14.91" transform="translate(-146.71 -408.61)"/><rect class="cls-102" x="1769.73" y="1057.02" width="151.8" height="46.79" rx="5.19"/><text class="cls-127" transform="translate(1819.28 1090.3)"><tspan class="cls-125">M</tspan><tspan x="19.99" y="0">odifier</tspan></text><path class="cls-129" d="M1956.78,1479.94v19.27H1935.9q0-9.63-.1-19.27" transform="translate(-146.71 -408.61)"/><line class="cls-129" x1="1788.15" y1="1069.49" x2="1810.84" y2="1069.49"/><line class="cls-129" x1="1795.95" y1="1067.62" x2="1803.03" y2="1067.62"/><path class="cls-129" d="M1942.13,1496.77v-14.91" transform="translate(-146.71 -408.61)"/><path class="cls-129" d="M1950.23,1496.77v-14.91" transform="translate(-146.71 -408.61)"/><text class="cls-130" transform="translate(3728.41 412.78)"><tspan class="cls-131">L</tspan><tspan x="16.03" y="0">o</tspan><tspan class="cls-132" x="35.25" y="0">r</tspan><tspan x="46.34" y="0">em ipsum dolor sit ame</tspan><tspan class="cls-44" x="388.29" y="0">t</tspan><tspan x="399.77" y="0">, </tspan><tspan class="cls-71" x="414.43" y="0">c</tspan><tspan x="429.9" y="0">onse</tspan><tspan class="cls-133" x="499.94" y="0">c</tspan><tspan class="cls-71" x="516.07" y="0">t</tspan><tspan x="527.45" y="0">etuer adipiscing eli</tspan><tspan class="cls-72" x="803.28" y="0">t</tspan><tspan x="814.76" y="0">, sed diam nonum</tspan><tspan class="cls-134" x="1075.93" y="0">m</tspan><tspan x="1104.67" y="0">y </tspan><tspan x="0" y="42">nibh euismod tincidu</tspan><tspan class="cls-135" x="310.9" y="42">n</tspan><tspan x="330.19" y="42">t ut lao</tspan><tspan class="cls-136" x="431.83" y="42">r</tspan><tspan x="442.92" y="42">eet dolo</tspan><tspan class="cls-132" x="563.43" y="42">r</tspan><tspan x="574.52" y="42">e ma</tspan><tspan class="cls-71" x="645.54" y="42">g</tspan><tspan x="664.89" y="42">na aliquam e</tspan><tspan class="cls-137" x="851.93" y="42">r</tspan><tspan class="cls-138" x="863.2" y="42">a</tspan><tspan x="879.93" y="42">t </tspan><tspan class="cls-136" x="898.94" y="42">v</tspan><tspan x="915.42" y="42">olutp</tspan><tspan class="cls-135" x="993.68" y="42">a</tspan><tspan class="cls-44" x="1010.41" y="42">t</tspan><tspan x="1021.89" y="42">. </tspan><tspan class="cls-70" x="1036.56" y="42">U</tspan><tspan x="1059.34" y="42">t </tspan><tspan x="0" y="84">wisi enim ad minim </tspan><tspan class="cls-136" x="290.81" y="84">v</tspan><tspan x="307.3" y="84">eniam, quis nostrud </tspan><tspan class="cls-44" x="603.61" y="84">e</tspan><tspan class="cls-139" x="621.04" y="84">x</tspan><tspan x="636.72" y="84">e</tspan><tspan class="cls-136" x="654.25" y="84">r</tspan><tspan x="665.35" y="84">ci t</tspan><tspan class="cls-135" x="708.22" y="84">a</tspan><tspan x="724.95" y="84">tion ullam</tspan><tspan class="cls-71" x="872.65" y="84">c</tspan><tspan x="888.12" y="84">o</tspan><tspan class="cls-70" x="907.34" y="84">r</tspan><tspan x="918.92" y="84">per suscipit </tspan><tspan x="0" y="126">lobo</tspan><tspan class="cls-140" x="66.6" y="126">r</tspan><tspan x="78.89" y="126">tis nisl ut ali</tspan></text><text class="cls-130" transform="translate(4000.82 737.78)"><tspan class="cls-141">C</tspan><tspan x="19.92" y="0">ouleur </tspan><tspan class="cls-142" x="122.36" y="0">P</tspan><tspan class="cls-70" x="140.42" y="0">r</tspan><tspan x="152.01" y="0">icipal</tspan><tspan class="cls-143" x="229.11" y="0">e</tspan><tspan x="246.22" y="0">, </tspan><tspan class="cls-141" x="260.89" y="0">C</tspan><tspan x="280.8" y="0">ou</tspan><tspan x="319.3" y="0">-</tspan><tspan x="0" y="42">leurs t</tspan><tspan class="cls-136" x="89.39" y="42">r</tspan><tspan x="100.49" y="42">ès p</tspan><tspan class="cls-70" x="159.21" y="42">r</tspan><tspan x="170.8" y="42">isée dans le </tspan><tspan x="0" y="84">domaine numé</tspan><tspan class="cls-70" x="223.02" y="84">r</tspan><tspan x="234.61" y="84">ique</tspan></text><rect class="cls-102" x="3744.46" y="712.93" width="185.12" height="185.12"/><rect class="cls-144" x="3744.46" y="1479.52" width="415.96" height="61.95"/><rect class="cls-97" x="3744.46" y="1124.42" width="151.81" height="151.81"/><text class="cls-60" transform="translate(4024.43 1323.07)">#e5d329</text><rect class="cls-101" x="4008.61" y="1124.42" width="151.81" height="151.81"/><text class="cls-60" transform="translate(4305.33 1323.07)">#e82828</text><rect class="cls-100" x="4289.5" y="1124.42" width="151.81" height="151.81"/><path class="cls-102" d="M1865.47,1839.66a14.71,14.71,0,1,0-2.81,2.84l11.14,11.14,2.82-2.83Zm-23.4-8.8a11.68,11.68,0,1,1,11.67,11.68A11.69,11.69,0,0,1,1842.07,1830.86Z" transform="translate(-146.71 -408.61)"/><polygon class="cls-102" points="1576.37 1423.38 1576.37 1429.38 1563.73 1429.38 1563.73 1442.01 1557.73 1442.01 1557.73 1429.38 1545.75 1429.38 1545.75 1423.38 1557.73 1423.38 1557.73 1411.39 1563.73 1411.39 1563.73 1423.38 1576.37 1423.38"/><path class="cls-102" d="M1442,1832v6h-27.2l10.34,12.63h-6l-12.34-15.14,12.34-15.47h6l-10.34,12Z" transform="translate(-146.71 -408.61)"/><path class="cls-102" d="M1551.44,1832v6h27.19l-10.34,12.63h6l12.35-15.14L1574.29,1820h-6l10.34,12Z" transform="translate(-146.71 -408.61)"/><circle class="cls-102" cx="1272.84" cy="1571.94" r="24.08"/><polygon class="cls-145" points="1286.14 1570 1286.14 1575.21 1275.16 1575.21 1275.16 1586.18 1269.95 1586.18 1269.95 1575.21 1259.54 1575.21 1259.54 1570 1269.95 1570 1269.95 1559.59 1275.16 1559.59 1275.16 1570 1286.14 1570"/><circle class="cls-100" cx="1419.59" cy="1571.94" r="24.08"/><path class="cls-145" d="M1579.61,1978.61v5.21H1553v-5.21h26.6Z" transform="translate(-146.71 -408.61)"/><rect class="cls-102" x="2011.99" y="1410.04" width="12.84" height="12.84" rx="6.42"/><path class="cls-146" d="M2151,1853.27a14.56,14.56,0,1,1,29.12,0" transform="translate(-146.71 -408.61)"/><rect class="cls-102" x="1991.92" y="1400.4" width="12.84" height="12.84" rx="6.42"/><path class="cls-146" d="M2131,1843.64a14.35,14.35,0,0,1,23.59-11.66" transform="translate(-146.71 -408.61)"/><rect class="cls-102" x="2003.61" y="1581.1" width="8.45" height="8.45" rx="4.23"/><rect class="cls-102" x="2004.84" y="1550.29" width="5.98" height="5.98" rx="2.99"/><path class="cls-114" d="M2154.58,1964.14c-5.75-.18-10.11,4.29-11.69,8-.39.91-.7,2-.86,10.37-.07,3.61-.07,6.6-.06,8.66l24.25.11c0-2.3,0-5.35,0-8.94,0-7.75-.13-8.7-.63-10C2164.17,1968.77,2160.17,1964.31,2154.58,1964.14Z" transform="translate(-146.71 -408.61)"/><line class="cls-114" x1="1989.75" y1="1582.7" x2="2025.91" y2="1582.7"/></svg>